<mxfile host="app.diagrams.net" modified="2021-12-22T02:20:36.602Z" agent="5.0 (Windows NT 10.0; Win64; x64) AppleWebKit/537.36 (KHTML, like Gecko) Chrome/83.0.4103.97 Safari/537.36" etag="r4yiA6DksIhOGTfAH7ql" version="16.0.0" type="github">
  <diagram id="DAhJHyPbjhw9XQvxDux5" name="Page-1">
    <mxGraphModel dx="942" dy="582" grid="1" gridSize="10" guides="1" tooltips="1" connect="1" arrows="1" fold="1" page="1" pageScale="1" pageWidth="1169" pageHeight="1654" math="0" shadow="0">
      <root>
        <mxCell id="0" />
        <mxCell id="1" parent="0" />
        <mxCell id="AaE6GnHkr7WIysMyvK4L-2" value="" style="rounded=0;whiteSpace=wrap;html=1;" vertex="1" parent="1">
          <mxGeometry x="80" y="80" width="620" height="330" as="geometry" />
        </mxCell>
        <mxCell id="AaE6GnHkr7WIysMyvK4L-3" value="" style="rounded=0;whiteSpace=wrap;html=1;" vertex="1" parent="1">
          <mxGeometry x="110" y="110" width="420" height="270" as="geometry" />
        </mxCell>
        <mxCell id="AaE6GnHkr7WIysMyvK4L-4" value="buffer pool" style="text;html=1;strokeColor=none;fillColor=none;align=center;verticalAlign=middle;whiteSpace=wrap;rounded=0;fontSize=15;" vertex="1" parent="1">
          <mxGeometry x="120" y="120" width="80" height="30" as="geometry" />
        </mxCell>
        <mxCell id="AaE6GnHkr7WIysMyvK4L-5" value="&lt;div class=&quot;mind-clipboard&quot;&gt;data page&lt;div&gt;数据页&lt;/div&gt;&lt;/div&gt;" style="rounded=0;whiteSpace=wrap;html=1;fontSize=15;" vertex="1" parent="1">
          <mxGeometry x="120" y="170" width="130" height="80" as="geometry" />
        </mxCell>
        <mxCell id="AaE6GnHkr7WIysMyvK4L-6" value="&lt;div class=&quot;mind-clipboard&quot;&gt;&lt;div class=&quot;mind-clipboard&quot;&gt;index page&lt;div&gt;索引页&lt;/div&gt;&lt;/div&gt;&lt;/div&gt;" style="rounded=0;whiteSpace=wrap;html=1;fontSize=15;" vertex="1" parent="1">
          <mxGeometry x="120" y="260" width="130" height="90" as="geometry" />
        </mxCell>
        <mxCell id="AaE6GnHkr7WIysMyvK4L-7" value="&lt;div class=&quot;mind-clipboard&quot;&gt;undo log page&lt;div&gt;&lt;br&gt;&lt;/div&gt;&lt;/div&gt;" style="rounded=0;whiteSpace=wrap;html=1;fontSize=15;" vertex="1" parent="1">
          <mxGeometry x="260" y="160" width="110" height="60" as="geometry" />
        </mxCell>
        <mxCell id="AaE6GnHkr7WIysMyvK4L-8" value="&lt;span style=&quot;color: rgb(50 , 50 , 50) ; font-size: 13px ; background-color: rgba(255 , 255 , 255 , 0.01)&quot;&gt;insert buffer&lt;/span&gt;" style="rounded=0;whiteSpace=wrap;html=1;fontSize=15;" vertex="1" parent="1">
          <mxGeometry x="260" y="230" width="110" height="60" as="geometry" />
        </mxCell>
        <mxCell id="AaE6GnHkr7WIysMyvK4L-9" value="&lt;div class=&quot;mind-clipboard&quot;&gt;adaptive hash index&amp;nbsp;&lt;div&gt;自适应哈希索引&lt;/div&gt;&lt;/div&gt;" style="rounded=0;whiteSpace=wrap;html=1;fontSize=15;" vertex="1" parent="1">
          <mxGeometry x="260" y="301" width="110" height="59" as="geometry" />
        </mxCell>
        <mxCell id="AaE6GnHkr7WIysMyvK4L-10" value="&lt;div class=&quot;mind-clipboard&quot;&gt;lock info&lt;div&gt;锁信息&lt;/div&gt;&lt;/div&gt;" style="rounded=0;whiteSpace=wrap;html=1;fontSize=15;" vertex="1" parent="1">
          <mxGeometry x="390" y="170" width="110" height="50" as="geometry" />
        </mxCell>
        <mxCell id="AaE6GnHkr7WIysMyvK4L-11" value="&lt;div class=&quot;mind-clipboard&quot;&gt;&lt;div&gt;data dictionary&lt;/div&gt;&lt;div&gt;锁信息&lt;/div&gt;&lt;/div&gt;" style="rounded=0;whiteSpace=wrap;html=1;fontSize=15;" vertex="1" parent="1">
          <mxGeometry x="390" y="290" width="110" height="50" as="geometry" />
        </mxCell>
        <mxCell id="AaE6GnHkr7WIysMyvK4L-12" value="&lt;div class=&quot;mind-clipboard&quot;&gt;&lt;span style=&quot;color: rgb(50 , 50 , 50) ; font-size: 13px ; background-color: rgba(255 , 255 , 255 , 0.01)&quot;&gt;redo log buffer&lt;/span&gt;&lt;br&gt;&lt;/div&gt;" style="rounded=0;whiteSpace=wrap;html=1;fontSize=15;" vertex="1" parent="1">
          <mxGeometry x="560" y="165" width="110" height="50" as="geometry" />
        </mxCell>
        <mxCell id="AaE6GnHkr7WIysMyvK4L-13" value="&lt;div class=&quot;mind-clipboard&quot;&gt;&lt;span style=&quot;color: rgb(50 , 50 , 50) ; font-size: 13px ; background-color: rgba(255 , 255 , 255 , 0.01)&quot;&gt;innodb additional mem_pool&amp;nbsp;&lt;/span&gt;&lt;br&gt;&lt;/div&gt;" style="rounded=0;whiteSpace=wrap;html=1;fontSize=15;" vertex="1" parent="1">
          <mxGeometry x="560" y="290" width="110" height="50" as="geometry" />
        </mxCell>
      </root>
    </mxGraphModel>
  </diagram>
</mxfile>
